<svg data-v-0dd9719b="" version="1.0" xmlns="http://www.w3.org/2000/svg" xmlns:xlink="http://www.w3.org/1999/xlink"
    width="100%" height="100%" viewBox="80 95 180 60" preserveAspectRatio="xMidYMid meet"
    color-interpolation-filters="sRGB" style="margin: auto;">
    <g data-v-0dd9719b="" fill="#333" class="iconlinesvg-g iconlinesvg"
        transform="translate(81.34202575683594,105.60185050964509)">
        <g class="tp-name">
            <g transform="translate(0, 0)">
                <g>
                    <g class="imagesvg">
                        <g>
                            <rect fill="#FFF" fill-opacity="0" stroke-width="2" x="0" y="0" width="40.59799816490687"
                                height="38.79629808197973" class="image-rect"></rect>
                            <svg x="0" y="0" width="40.59799816490687" height="38.79629808197973"
                                filtersec="colorsb6464666278" class="image-svg-svg primary" style="overflow: visible;">
                                <svg xmlns="http://www.w3.org/2000/svg"
                                    viewBox="0 0.000054772790463175625 96 91.73974609375">
                                    <g d-rs="3" transform="matrix(1,0,0,-1,0,91.7398)">
                                        <path
                                            d="M23.5 2.26c-1.12.66-2.21 1.37-3.26 2.11h4.23zm5.02 10.85H10.79a47.93 47.93 0 0 0-5.74 8.74h27.51zM60.87 83H20.25a48.14 48.14 0 0 0 43.44 6.08z"
                                            fill="#5ba0f4"></path>
                                        <path
                                            d="M23.5 2.26l3 6.48h54.36A48.21 48.21 0 0 0 67.9 0H27.83a48 48 0 0 0-4.33 2.26zm35.35 76.41h22a47.79 47.79 0 0 0 7.3-8.74H54.81zm4.84 10.45a44.32 44.32 0 0 0 4.22-1.71h-5z"
                                            fill="#73c4fc"></path>
                                        <path
                                            d="M30.39 30.6H1.61A48.17 48.17 0 0 0 0 39.34h26.46a21.78 21.78 0 0 1 3.93-8.74zm-3.93 17.48H0a49.39 49.39 0 0 0 1.62 8.74h28.77a21.78 21.78 0 0 1-3.93-8.74zM5.06 65.56a47.21 47.21 0 0 0 5.73 8.74h46l-4-8.74z"
                                            fill="#5ba0f4"></path>
                                        <path
                                            d="M67.91 52.45A22 22 0 0 1 61 61.19h31.67a47.58 47.58 0 0 0 2.48-8.74zm1.82-8.74H96a48.32 48.32 0 0 0-.8-8.74H67.91a21.74 21.74 0 0 1 1.82 8.74zM34.76 26.22a21.87 21.87 0 0 1 26.23 0h31.67a47.49 47.49 0 0 0-4.5-8.74H30.54l4.05 8.74z"
                                            fill="#73c4fc"></path>
                                    </g>
                                </svg>
                            </svg>
                        </g>
                    </g>
                </g>
            </g>
            <g transform="translate(43, 2.4467790088990213)">
                <g data-gra="path-name" fill="#FFF" transform="scale(1)">
                    <path
                        d="M16.40-29.59L16.40-29.59Q17.28-28.17 17.77-26.44Q18.26-24.71 18.26-22.93L18.26-22.93Q18.26-21.11 17.77-19.37Q17.28-17.64 16.40-16.22L16.40-16.22Q15.37-14.66 14.06-13.82Q12.75-12.97 11.33-12.97L11.33-12.97L6.31-12.97L6.31-1.33Q6.31-0.67 5.87-0.22Q5.42 0.22 4.75 0.22L4.75 0.22Q4.13 0.22 3.67-0.22Q3.20-0.67 3.20-1.33L3.20-1.33L3.20-31.24Q3.20-32.17 4.00-32.61L4.00-32.61Q4.31-32.88 4.80-32.88L4.80-32.88L11.33-32.88Q12.75-32.88 14.06-32.01Q15.37-31.15 16.40-29.59ZM13.73-17.91L13.73-17.91Q14.40-18.93 14.75-20.24Q15.11-21.55 15.11-22.93L15.11-22.93Q15.11-24.26 14.75-25.57Q14.40-26.88 13.73-27.90L13.73-27.90Q13.20-28.79 12.55-29.26Q11.91-29.73 11.33-29.73L11.33-29.73L6.31-29.73L6.31-16.08L11.33-16.08Q11.91-16.08 12.55-16.55Q13.20-17.02 13.73-17.91Z"
                        transform="translate(-3.1992100715872622, 33.14737101950136)"></path>
                </g>
            </g>
            <g transform="translate(62, 2.4467790088990213)">
                <g data-gra="path-name" fill="#FFF" transform="scale(1)">
                    <path
                        d="M16.80-2.93L16.80-2.93Q17.46-2.93 17.93-2.47Q18.40-2.00 18.40-1.33L18.40-1.33Q18.40-0.71 17.93-0.24Q17.46 0.22 16.80 0.22L16.80 0.22L5.02 0.22Q4.35 0.22 3.89-0.24Q3.42-0.71 3.42-1.33L3.42-1.33L3.42-31.28Q3.42-31.90 3.89-32.37Q4.35-32.84 5.02-32.84L5.02-32.84L16.80-32.84Q17.46-32.84 17.93-32.37Q18.40-31.90 18.40-31.28L18.40-31.28Q18.40-30.61 17.93-30.15Q17.46-29.68 16.80-29.68L16.80-29.68L6.58-29.68L6.58-16.04L14.26-16.04Q14.93-16.04 15.37-15.57Q15.82-15.11 15.82-14.44L15.82-14.44Q15.82-13.82 15.37-13.35Q14.93-12.89 14.26-12.89L14.26-12.89L6.58-12.89L6.58-2.93L16.80-2.93Z"
                        transform="translate(-3.421377437669711, 33.14737101950136)"></path>
                </g>
            </g>
            <g transform="translate(80, 2.4467790088990213)">
                <g data-gra="path-name" fill="#FFF" transform="scale(1)">
                    <path
                        d="M19.11-0.40L19.11-0.40Q19.11-0.40 19.06-0.36L19.06-0.36Q19.02-0.36 19.02-0.31L19.02-0.31L18.97-0.31Q18.97-0.31 18.93-0.27L18.93-0.27Q18.93-0.22 18.88-0.22L18.88-0.22L18.84-0.18L18.80-0.18Q18.80-0.13 18.75-0.13L18.75-0.13L18.71-0.13L18.71-0.09L18.66-0.09L18.62-0.04Q18.44 0.04 18.26 0.04L18.26 0.04Q18.17 0.09 17.95 0.09L17.95 0.09L17.91 0.09L17.86 0.09L17.82 0.09L17.73 0.09Q17.64 0.09 17.60 0.04L17.60 0.04L17.51 0.04Q17.42 0 17.40 0Q17.37 0 17.28-0.04L17.28-0.04Q17.24-0.09 17.20-0.09Q17.15-0.09 17.11-0.13L17.11-0.13L17.06-0.18Q17.06-0.18 17.02-0.22L17.02-0.22L16.97-0.22Q16.97-0.27 16.93-0.27L16.93-0.27Q16.93-0.27 16.88-0.31L16.88-0.31L16.84-0.36L16.80-0.40L16.75-0.44Q16.71-0.49 16.71-0.53L16.71-0.53Q16.66-0.53 16.66-0.58L16.66-0.58L16.62-0.62Q16.57-0.67 16.57-0.76L16.57-0.76Q16.53-0.80 16.53-0.82Q16.53-0.84 16.48-0.89L16.48-0.89L6.53-23.82L6.53-1.47Q6.53-0.84 6.09-0.38Q5.64 0.09 4.98 0.09L4.98 0.09Q4.35 0.09 3.89-0.38Q3.42-0.84 3.42-1.47L3.42-1.47L3.42-31.37L3.42-31.46L3.42-31.50L3.42-31.55L3.42-31.59L3.42-31.64L3.42-31.68L3.47-31.68L3.47-31.77L3.47-31.81L3.47-31.86Q3.47-31.86 3.51-31.90L3.51-31.90L3.51-31.99Q3.55-31.99 3.55-32.04L3.55-32.04Q3.55-32.08 3.58-32.08Q3.60-32.08 3.60-32.13L3.60-32.13L3.60-32.17L3.64-32.17L3.64-32.21Q3.64-32.26 3.69-32.26L3.69-32.26L3.69-32.30Q3.69-32.30 3.73-32.35L3.73-32.35L3.78-32.39Q3.78-32.44 3.82-32.44L3.82-32.44Q3.82-32.48 3.84-32.48Q3.87-32.48 3.87-32.53L3.87-32.53Q3.91-32.53 3.91-32.57L3.91-32.57L3.95-32.57L4.00-32.61L4.04-32.66Q4.09-32.66 4.09-32.70L4.09-32.70L4.13-32.70L4.18-32.75L4.22-32.75L4.27-32.79L4.31-32.79Q4.40-32.88 4.49-32.88Q4.58-32.88 4.67-32.93L4.67-32.93L4.71-32.93Q4.80-32.97 5.07-32.97L5.07-32.97L5.15-32.97L5.20-32.97Q5.24-32.97 5.24-32.93L5.24-32.93L5.29-32.93L5.33-32.93L5.42-32.93Q5.47-32.88 5.51-32.88L5.51-32.88Q5.51-32.88 5.55-32.84L5.55-32.84L5.64-32.84L5.69-32.79Q5.73-32.79 5.78-32.75L5.78-32.75L5.82-32.75Q5.82-32.70 5.87-32.70L5.87-32.70L5.91-32.66L5.95-32.66L5.95-32.61L6.00-32.61Q6.00-32.57 6.04-32.57L6.04-32.57Q6.04-32.53 6.09-32.53L6.09-32.53Q6.13-32.48 6.13-32.44L6.13-32.44Q6.18-32.44 6.18-32.39L6.18-32.39L6.22-32.39L6.22-32.35L6.27-32.35L6.27-32.30Q6.27-32.26 6.31-32.26L6.31-32.26L6.31-32.21Q6.31-32.21 6.35-32.17L6.35-32.17Q6.35-32.13 6.38-32.13Q6.40-32.13 6.40-32.08L6.40-32.08Q6.40-32.08 6.44-31.99L6.44-31.99L16.40-9.02L16.40-31.41Q16.40-32.04 16.84-32.50Q17.28-32.97 17.95-32.97L17.95-32.97Q18.57-32.97 19.04-32.50Q19.51-32.04 19.51-31.41L19.51-31.41L19.51-1.51L19.51-1.38L19.51-1.33L19.51-1.29L19.51-1.24L19.51-1.20Q19.51-1.20 19.46-1.16L19.46-1.16L19.46-1.11L19.46-1.02L19.42-0.98L19.42-0.89Q19.37-0.89 19.37-0.84L19.37-0.84L19.37-0.80L19.33-0.76L19.33-0.71Q19.28-0.71 19.28-0.67L19.28-0.67L19.28-0.62L19.24-0.62L19.24-0.58L19.20-0.53Q19.20-0.49 19.15-0.49L19.15-0.49Q19.15-0.44 19.13-0.44Q19.11-0.44 19.11-0.40Z"
                        transform="translate(-3.4213774376697113, 33.14737101950136)"></path>
                </g>
            </g>
            <g transform="translate(100, 2.4467790088990213)">
                <g data-gra="path-name" fill="#FFF" transform="scale(1)">
                    <path
                        d="M16.40-29.59L16.40-29.59Q17.28-28.17 17.77-26.44Q18.26-24.71 18.26-22.93L18.26-22.93Q18.26-21.11 17.77-19.37Q17.28-17.64 16.40-16.22L16.40-16.22Q15.37-14.66 14.06-13.82Q12.75-12.97 11.33-12.97L11.33-12.97L6.31-12.97L6.31-1.33Q6.31-0.67 5.87-0.22Q5.42 0.22 4.75 0.22L4.75 0.22Q4.13 0.22 3.67-0.22Q3.20-0.67 3.20-1.33L3.20-1.33L3.20-31.24Q3.20-32.17 4.00-32.61L4.00-32.61Q4.31-32.88 4.80-32.88L4.80-32.88L11.33-32.88Q12.75-32.88 14.06-32.01Q15.37-31.15 16.40-29.59ZM13.73-17.91L13.73-17.91Q14.40-18.93 14.75-20.24Q15.11-21.55 15.11-22.93L15.11-22.93Q15.11-24.26 14.75-25.57Q14.40-26.88 13.73-27.90L13.73-27.90Q13.20-28.79 12.55-29.26Q11.91-29.73 11.33-29.73L11.33-29.73L6.31-29.73L6.31-16.08L11.33-16.08Q11.91-16.08 12.55-16.55Q13.20-17.02 13.73-17.91Z"
                        transform="translate(-3.1992100715872622, 33.14737101950136)"></path>
                </g>
            </g>
            <g transform="translate(119, 2.4467790088990213)">
                <g data-gra="path-name" fill="#FFF" transform="scale(1)">
                    <path
                        d="M16.80-2.93L16.80-2.93Q17.46-2.93 17.93-2.47Q18.40-2.00 18.40-1.33L18.40-1.33Q18.40-0.71 17.93-0.24Q17.46 0.22 16.80 0.22L16.80 0.22L5.02 0.22Q4.35 0.22 3.89-0.24Q3.42-0.71 3.42-1.33L3.42-1.33L3.42-31.28Q3.42-31.90 3.89-32.37Q4.35-32.84 5.02-32.84L5.02-32.84L16.80-32.84Q17.46-32.84 17.93-32.37Q18.40-31.90 18.40-31.28L18.40-31.28Q18.40-30.61 17.93-30.15Q17.46-29.68 16.80-29.68L16.80-29.68L6.58-29.68L6.58-16.04L14.26-16.04Q14.93-16.04 15.37-15.57Q15.82-15.11 15.82-14.44L15.82-14.44Q15.82-13.82 15.37-13.35Q14.93-12.89 14.26-12.89L14.26-12.89L6.58-12.89L6.58-2.93L16.80-2.93Z"
                        transform="translate(-3.421377437669711, 33.14737101950136)"></path>
                </g>
            </g>
            <g transform="translate(137, 2.4467790088990213)">
                <g data-gra="path-name" fill="#FFF" transform="scale(1)">
                    <path
                        d="M11.24 0.22L11.24 0.22L7.82 0.22L5.38 0.22Q4.71 0.22 4.27-0.24Q3.82-0.71 3.82-1.33L3.82-1.33L3.82-31.28Q3.82-31.90 4.27-32.37Q4.71-32.84 5.38-32.84L5.38-32.84L7.82-32.84L11.24-32.84Q12.57-32.84 13.86-32.37Q15.15-31.90 16.17-30.93Q17.20-29.95 17.84-28.44Q18.48-26.93 18.48-24.88L18.48-24.88L18.48-7.78Q18.48-5.69 17.84-4.20Q17.20-2.71 16.17-1.71Q15.15-0.71 13.86-0.24Q12.57 0.22 11.24 0.22ZM6.93-29.73L6.93-2.93L7.82-2.93L11.24-2.93Q12.89-2.93 14.00-3.95L14.00-3.95Q15.37-5.24 15.37-7.78L15.37-7.78L15.37-24.88Q15.37-27.33 14.00-28.70L14.00-28.70Q12.84-29.73 11.24-29.73L11.24-29.73L7.82-29.73L6.93-29.73Z"
                        transform="translate(-3.8212786966181187, 33.14737101950136)"></path>
                </g>
            </g>
            <g transform="translate(155, 2.4467790088990213)">
                <g data-gra="path-name" fill="#FFF" transform="scale(1)">
                    <path
                        d="M6.04 0.22L6.04 0.22Q5.38 0.22 4.93-0.24Q4.49-0.71 4.49-1.33L4.49-1.33L4.49-31.28Q4.49-31.90 4.93-32.37Q5.38-32.84 6.04-32.84L6.04-32.84Q6.67-32.84 7.13-32.37Q7.60-31.90 7.60-31.28L7.60-31.28L7.60-1.33Q7.60-0.71 7.13-0.24Q6.67 0.22 6.04 0.22Z"
                        transform="translate(-4.487780794865466, 33.14737101950136)"></path>
                </g>
            </g>
            <g transform="translate(162, 2.4467790088990213)">
                <g data-gra="path-name" fill="#FFF" transform="scale(1)">
                    <path
                        d="M10.80-31.86L17.02-1.16Q17.15-0.53 16.80-0.02Q16.44 0.49 15.86 0.62L15.86 0.62L15.60 0.62Q15.11 0.62 14.69 0.29Q14.26-0.04 14.17-0.53L14.17-0.53L12.97-6.31L5.78-6.31L4.62-0.53Q4.53-0.04 4.11 0.29Q3.69 0.62 3.15 0.62L3.15 0.62L2.89 0.62Q2.31 0.49 1.98-0.02Q1.64-0.53 1.78-1.16L1.78-1.16L7.95-31.86Q8.00-32.04 8.04-32.08L8.04-32.08L8.04-32.13L8.04-32.17Q8.13-32.39 8.26-32.48L8.26-32.48L8.26-32.57L8.31-32.57L8.31-32.61L8.35-32.61L8.35-32.66L8.40-32.66L8.40-32.70L8.44-32.70Q8.53-32.79 8.62-32.84Q8.71-32.88 8.84-32.93L8.84-32.93L8.84-32.97L8.89-32.97Q8.98-33.01 9.09-33.01Q9.20-33.01 9.29-33.06L9.29-33.06L9.33-33.06L9.42-33.06L9.46-33.06Q9.55-33.01 9.66-33.01Q9.78-33.01 9.86-32.97L9.86-32.97L9.91-32.97L9.91-32.93Q10.09-32.88 10.18-32.84Q10.26-32.79 10.35-32.70L10.35-32.70L10.40-32.70L10.40-32.66L10.44-32.66L10.44-32.61L10.49-32.61L10.49-32.57Q10.49-32.57 10.53-32.48L10.53-32.48Q10.58-32.39 10.64-32.33Q10.71-32.26 10.75-32.17L10.75-32.17L10.75-32.13L10.75-32.08Q10.80-32.04 10.80-31.86L10.80-31.86ZM6.35-9.20L12.40-9.20L9.33-24.22L6.35-9.20Z"
                        transform="translate(-1.7392530944740276, 33.14737101950136)"></path>
                </g>
            </g>
        </g>
    </g>
</svg>