
        <svg xmlns="http://www.w3.org/2000/svg" xmlns:xlink="http://www.w3.org/1999/xlink" version="1.1" width="3146.3414634146343" 
        height="819.5121951219513" viewBox="0 0 3146.3414634146343 819.5121951219513">
			
			<g transform="scale(7.317073170731708) translate(10, 10)">
				<defs id="SvgjsDefs2172"></defs><g id="SvgjsG2173" featureKey="rootContainer" transform="matrix(1,0,0,1,0,0)" fill="#193254">    <rect width="410" height="92"></rect></g><g id="SvgjsG2174" featureKey="symbolFeature-0" transform="matrix(1.2962962962962965,0,0,1.2962962962962965,20,15)" fill="#2874ff"><g xmlns="http://www.w3.org/2000/svg"><path d="M36,10.5L23.7,22.8c-0.4,0.4-0.4,1.1,0,1.5c0.4,0.4,1.1,0.4,1.5,0L37.5,12l3.7,0.5L48,5.7L43,5l-0.7-5l-6.9,6.9L36,10.5z"></path><path d="M42,14.5c1.5,2.8,2.4,6,2.4,9.5c0,11.2-9.1,20.3-20.3,20.3C12.8,44.3,3.7,35.2,3.7,24C3.7,12.8,12.8,3.7,24,3.7   c3.4,0,6.6,0.8,9.5,2.3l2.7-2.7C32.6,1.2,28.4,0,24,0C10.8,0,0,10.8,0,24c0,13.2,10.8,24,24,24c13.2,0,24-10.8,24-24   c0-4.4-1.2-8.6-3.3-12.2L42,14.5z"></path><path d="M33.4,10.3c-2.7-1.9-5.9-2.9-9.4-2.9C14.8,7.4,7.4,14.8,7.4,24c0,9.2,7.4,16.6,16.6,16.6S40.6,33.2,40.6,24   c0-3.5-1.1-6.7-2.9-9.4L35,17.3c1.2,2,1.9,4.3,1.9,6.7c0,7.1-5.8,12.9-12.9,12.9c-7.1,0-12.9-5.8-12.9-12.9   c0-7.1,5.8-12.9,12.9-12.9c2.5,0,4.8,0.7,6.7,1.9L33.4,10.3z"></path><path d="M24,18.5c0.4,0,0.8,0,1.1,0.1l2.9-2.9c-1.2-0.6-2.6-0.9-4-0.9c-5.1,0-9.2,4.1-9.2,9.2s4.1,9.2,9.2,9.2s9.2-4.1,9.2-9.2   c0-1.4-0.3-2.8-0.9-4l-2.9,2.9c0,0,0,0,0,0c0.1,0.4,0.1,0.7,0.1,1.1c0,3.1-2.5,5.5-5.5,5.5c-3.1,0-5.5-2.5-5.5-5.5   C18.5,20.9,20.9,18.5,24,18.5z"></path></g></g><g id="SvgjsG2175" featureKey="nameFeature-0" transform="matrix(1.1773157275433712,0,0,1.1773157275433712,99.97737109504135,15.594343594210311)" fill="#ffffff"><path d="M16.152 40.39063 c-8.3008 0 -14.434 -5.6641 -14.434 -14.512 c0 -8.8672 6.1328 -14.492 14.434 -14.492 c8.2813 0 14.414 5.625 14.414 14.492 c0 8.8477 -6.1328 14.512 -14.414 14.512 z M16.152 35.0195 c4.8633 0 8.5938 -3.418 8.5938 -9.1406 c0 -5.7031 -3.7305 -9.1016 -8.5938 -9.1016 s-8.5938 3.3984 -8.5938 9.1016 c0 5.7227 3.7305 9.1406 8.5938 9.1406 z M49.51209375 11.777000000000001 c5.5273 0 8.9648 4.1016 8.9648 9.1211 c0 5.1367 -3.4375 8.9844 -8.9648 8.9844 l-5.8789 0 l0 10.117 l-5.8594 0 l0 -28.223 l11.738 0 z M48.53509375 24.98 c2.9297 0 4.2969 -1.6211 4.2969 -4.1602 c0 -2.4414 -1.3672 -4.1406 -4.2969 -4.1406 l-4.9023 0 l0 8.3008 l4.9023 0 z M81.5825 16.934 l-10.469 0 l0 6.4063 l9.2773 0 l0 5.0977 l-9.2773 0 l0 6.3867 l10.469 0 l0 5.1758 l-16.367 0 l0 -28.223 l16.367 0 l0 5.1563 z M108.71125 11.777000000000001 l5.8398 0 l0 28.223 l-6.7773 0 l-12.5 -20.176 l0 20.176 l-5.8398 0 l0 -28.223 l6.6992 0 l12.578 20.059 l0 -20.059 z M135.41053125 11.777000000000001 c5.5273 0 8.9648 4.1016 8.9648 9.1211 c0 5.1367 -3.4375 8.9844 -8.9648 8.9844 l-5.8789 0 l0 10.117 l-5.8594 0 l0 -28.223 l11.738 0 z M134.43353125 24.98 c2.9297 0 4.2969 -1.6211 4.2969 -4.1602 c0 -2.4414 -1.3672 -4.1406 -4.2969 -4.1406 l-4.9023 0 l0 8.3008 l4.9023 0 z M167.4809375 16.934 l-10.469 0 l0 6.4063 l9.2773 0 l0 5.0977 l-9.2773 0 l0 6.3867 l10.469 0 l0 5.1758 l-16.367 0 l0 -28.223 l16.367 0 l0 5.1563 z M175.3319875 40 l0 -28.223 l10.215 0 c9.0039 0 13.457 5.6641 13.457 14.102 c0 8.457 -4.4531 14.121 -13.457 14.121 l-10.215 0 z M181.1913875 34.8242 l4.0625 0 c5.1953 0 7.5781 -3.2422 7.5781 -8.9453 s-2.3828 -8.9453 -7.5781 -8.9453 l-4.0625 0 l0 17.891 z M206.30855 40 l0 -28.223 l5.8594 0 l0 28.223 l-5.8594 0 z M240.1561875 40 l-2.0508 -5.8203 l-11.855 0 l-2.0508 5.8203 l-5.9961 0 l10.391 -28.223 l7.168 0 l10.391 28.223 l-5.9961 0 z M227.9691875 29.277 l8.418 0 l-4.1992 -11.973 z"></path></g>
			</g>
		</svg>
	