<svg xmlns="http://www.w3.org/2000/svg" width="426" height="96" viewBox="0 0 426 96" version="1.1"><path d="M 38.108 10.518 C 35.142 11.351, 30.925 13.037, 28.737 14.266 L 24.758 16.500 41.501 16.775 C 55.245 17, 58.445 16.788, 59.372 15.587 C 59.992 14.783, 61.850 13.981, 63.500 13.805 C 66.322 13.505, 66.203 13.380, 61.500 11.690 C 54.479 9.167, 44.670 8.676, 38.108 10.518 M 56 21.500 C 56 22.781, 53.228 23, 37.051 23 L 18.102 23 15.551 26.344 C 14.148 28.184, 13 29.984, 13 30.344 C 13 30.705, 22 31, 33 31 C 50.111 31, 53 30.783, 53 29.500 C 53 28.238, 55.222 28, 67 28 C 74.700 28, 80.987 27.663, 80.971 27.250 C 80.955 26.837, 79.611 25.038, 77.985 23.250 C 75.045 20.018, 74.975 20, 65.514 20 C 57.724 20, 56 20.272, 56 21.500 M 59 34.553 C 59 34.858, 60.237 36.658, 61.750 38.553 L 64.500 42 75.817 42 C 87.079 42, 87.132 41.989, 86.488 39.750 C 86.132 38.513, 85.622 36.712, 85.353 35.750 C 84.921 34.199, 83.397 34, 71.933 34 C 64.820 34, 59 34.249, 59 34.553 M 9.667 38.667 C 9.300 39.033, 9 40.833, 9 42.667 L 9 46 19.750 45.990 L 30.500 45.980 32.176 41.990 L 33.851 38 22.092 38 C 15.625 38, 10.033 38.300, 9.667 38.667 M 65.552 49.250 C 65.340 49.938, 64.896 51.737, 64.564 53.250 L 63.962 56 75.372 56 L 86.781 56 87.193 52.469 C 87.420 50.528, 87.394 48.728, 87.136 48.469 C 86.878 48.211, 82.003 48, 76.302 48 C 68.882 48, 65.828 48.355, 65.552 49.250 M 9 54.418 C 9 59.870, 9.306 60, 22.190 60 C 28.777 60, 33.987 59.663, 33.768 59.250 C 33.549 58.837, 32.793 57.038, 32.087 55.250 L 30.804 52 19.902 52 C 9.038 52, 9 52.008, 9 54.418 M 36 64.500 C 36 65.750, 33.998 66, 23.986 66 L 11.972 66 14.619 70 L 17.266 74 25.026 74 C 31.001 74, 32.918 73.655, 33.362 72.500 C 33.851 71.226, 37.472 71, 57.448 71 L 80.959 71 83 67 L 85.041 63 71.270 63.035 C 61.220 63.061, 56.825 63.457, 55 64.500 C 51.785 66.338, 44.215 66.338, 41 64.500 C 37.741 62.637, 36 62.637, 36 64.500 M 29.300 78.389 C 28.860 79.152, 27.600 79.965, 26.500 80.195 C 24.771 80.556, 24.974 80.909, 28 82.803 C 31.235 84.827, 32.756 84.993, 48.079 84.996 L 64.657 85 69.327 81.907 C 71.896 80.205, 74.250 78.405, 74.558 77.907 C 74.886 77.375, 65.815 77, 52.609 77 C 34.454 77, 29.945 77.269, 29.300 78.389" stroke="none" fill="#69b5f8" fill-rule="evenodd"/><path d="M 96 44 L 96 69 99.500 69 L 103 69 103 59.619 L 103 50.239 112.250 49.808 C 118.389 49.522, 122.608 48.793, 124.794 47.640 C 134.870 42.327, 134.416 26.483, 124.038 21.250 C 120.164 19.296, 118.024 19, 107.788 19 L 96 19 96 44 M 140 44 L 140 69 156 69 L 172 69 172 66 L 172 63 159.500 63 L 147 63 147 54.500 L 147 46 158 46 L 169 46 169 43 L 169 40 158 40 L 147 40 147 32.500 L 147 25 159.500 25 L 172 25 172 22 L 172 19 156 19 L 140 19 140 44 M 180 43.940 L 180 69 183.477 69 L 186.955 69 187.227 50.804 L 187.500 32.608 199.347 50.804 L 211.193 69 215.097 69 L 219 69 219 44 L 219 19 215.023 19 L 211.045 19 210.773 37.051 L 210.500 55.103 198.922 37.301 C 187.654 19.975, 187.247 19.492, 183.672 19.190 L 180 18.879 180 43.940 M 230 44 L 230 69 233.500 69 L 237 69 237 59.619 L 237 50.239 246.287 49.832 C 253.852 49.502, 256.284 48.987, 259.402 47.061 C 268.916 41.181, 268.095 26.445, 257.964 21.250 C 254.146 19.292, 252.046 19, 241.788 19 L 230 19 230 44 M 274 44 L 274 69 290 69 L 306 69 306 66 L 306 63 293.500 63 L 281 63 281 54.500 L 281 46 292 46 L 303 46 303 43 L 303 40 292 40 L 281 40 281 32.500 L 281 25 293.500 25 L 306 25 306 22 L 306 19 290 19 L 274 19 274 44 M 314 44 L 314 69 323.886 69 C 332.753 69, 334.320 68.714, 339.091 66.221 C 346.195 62.510, 349.325 56.697, 349.853 46.232 C 350.317 37.048, 348.729 31.212, 344.385 26.137 C 339.907 20.905, 334.152 19, 322.822 19 L 314 19 314 44 M 360 44 L 360 69 363.500 69 L 367 69 367 44 L 367 19 363.500 19 L 360 19 360 44 M 383.796 44 L 374.280 69 378.050 69 C 381.784 69, 381.842 68.938, 384.151 62.500 L 386.482 56 396.556 56 L 406.630 56 408.925 62.500 C 411.219 68.998, 411.221 69, 415.123 69 L 419.027 69 417.681 65.750 C 416.941 63.962, 412.601 52.712, 408.038 40.750 L 399.740 19 396.526 19 L 393.312 19 383.796 44 M 103 34.500 L 103 44 109.532 44 C 120.140 44, 125.030 40.934, 124.978 34.316 C 124.929 28.120, 119.934 25, 110.066 25 L 103 25 103 34.500 M 237 34.628 L 237 44.257 244.916 43.799 C 249.880 43.511, 253.762 42.730, 255.329 41.704 C 260.396 38.384, 259.557 29.374, 253.909 26.453 C 252.231 25.585, 248.258 25, 244.050 25 L 237 25 237 34.628 M 321 44 L 321 63 326.750 62.996 C 337.588 62.989, 342.956 56.697, 342.956 44 C 342.956 31.303, 337.588 25.011, 326.750 25.004 L 321 25 321 44 M 392.619 39.075 C 390.628 44.616, 389 49.341, 389 49.575 C 389 49.809, 392.375 50, 396.500 50 C 400.625 50, 404 49.699, 404 49.331 C 404 48.415, 396.845 29, 396.508 29 C 396.359 29, 394.609 33.534, 392.619 39.075" stroke="none" fill="#fcfcfc" fill-rule="evenodd"/></svg>