<svg xmlns="http://www.w3.org/2000/svg" viewBox="0.000001430511474609375 0 96 91.73974609375">
    <g d-rs="3" transform="matrix(1,0,0,-1,0,91.7398)">
        <path
            d="M23.5 2.26c-1.12.66-2.21 1.37-3.26 2.11h4.23zm5.02 10.85H10.79a47.93 47.93 0 0 0-5.74 8.74h27.51zM60.87 83H20.25a48.14 48.14 0 0 0 43.44 6.08z"
            fill="#5ba0f4"></path>
        <path
            d="M23.5 2.26l3 6.48h54.36A48.21 48.21 0 0 0 67.9 0H27.83a48 48 0 0 0-4.33 2.26zm35.35 76.41h22a47.79 47.79 0 0 0 7.3-8.74H54.81zm4.84 10.45a44.32 44.32 0 0 0 4.22-1.71h-5z"
            fill="#73c4fc"></path>
        <path
            d="M30.39 30.6H1.61A48.17 48.17 0 0 0 0 39.34h26.46a21.78 21.78 0 0 1 3.93-8.74zm-3.93 17.48H0a49.39 49.39 0 0 0 1.62 8.74h28.77a21.78 21.78 0 0 1-3.93-8.74zM5.06 65.56a47.21 47.21 0 0 0 5.73 8.74h46l-4-8.74z"
            fill="#5ba0f4"></path>
        <path
            d="M67.91 52.45A22 22 0 0 1 61 61.19h31.67a47.58 47.58 0 0 0 2.48-8.74zm1.82-8.74H96a48.32 48.32 0 0 0-.8-8.74H67.91a21.74 21.74 0 0 1 1.82 8.74zM34.76 26.22a21.87 21.87 0 0 1 26.23 0h31.67a47.49 47.49 0 0 0-4.5-8.74H30.54l4.05 8.74z"
            fill="#73c4fc"></path>
    </g>
</svg>